<?xml version="1.0" standalone="no"?>
<!DOCTYPE svg PUBLIC "-//W3C//DTD SVG 1.1//EN" "http://www.w3.org/Graphics/SVG/1.1/DTD/svg11.dtd">
<svg xmlns="http://www.w3.org/2000/svg" xmlns:xlink="http://www.w3.org/1999/xlink" version="1.1" x="0px" y="0px" viewBox="0 0 350 86.378006" enable-background="new 0 0 350 86.378006" xml:space="preserve" width="350" height="86.37800598144531">
<g id="Layer_1">
	<g>
		
			<linearGradient id="SVGID_1_" gradientUnits="userSpaceOnUse" x1="-109.1868439" y1="483.9327087" x2="-131.5431213" y2="567.3674927" gradientTransform="matrix(0.9659258 -0.258819 0.258819 0.9659258 23.4043694 -495.7027588)">
			<stop offset="0.0173988" style="stop-color:#D5ECE8"/>
			<stop offset="0.5199099" style="stop-color:#BFD4D1"/>
			<stop offset="1" style="stop-color:#C8BDE5"/>
		</linearGradient>
		<path fill="url(#SVGID_1_)" d="M32.0121155,1.4763948C9.011117,7.6394944-4.6864576,31.365881,1.4763689,54.3658638    s29.8884659,36.6988487,52.8894691,30.5357475S91.064415,55.0121269,84.9015884,32.0121422    S55.0131187-4.6867046,32.0121155,1.4763948z M52.1304665,76.5590897    c-18.3999863,4.9302597-37.3813133-6.0286102-42.3115768-24.4286003s6.0286131-37.3813095,24.4286003-42.311573    s37.3813095,6.0286131,42.3115768,24.4286003C81.4893265,52.6474991,70.5304489,71.62883,52.1304665,76.5590897z     M64.4333878,38.8561859c1.7122345-1.0515785,3.9422302,0.0724182,4.1234818,2.073597    c1.0974045,12.1158638-6.6318092,23.6162605-18.7674408,26.8679924    c-12.1544342,3.2567749-24.6000729-2.8377991-29.7079105-13.8789558    c-0.8436794-1.8237038,0.5255585-3.9121666,2.5342178-3.8575935c4.4569092,0.1210861,12.266798-0.1757736,21.6865978-2.6998024    C53.7221756,44.8373833,60.6341591,41.1895027,64.4333878,38.8561859z"/>
		
			<radialGradient id="SVGID_2_" cx="-120.3649826" cy="525.6500854" r="43.1840706" gradientTransform="matrix(0.9659258 -0.258819 0.258819 0.9659258 23.4043694 -495.7027588)" gradientUnits="userSpaceOnUse">
			<stop offset="0.6653181" style="stop-color:#FFFFFF"/>
			<stop offset="0.8890306" style="stop-color:#FFFFFF"/>
			<stop offset="0.91583" style="stop-color:#FDFDFD"/>
			<stop offset="0.929517" style="stop-color:#F5F5F5"/>
			<stop offset="0.9402398" style="stop-color:#E8E8E8"/>
			<stop offset="0.9494248" style="stop-color:#D5D5D5"/>
			<stop offset="0.9576247" style="stop-color:#BCBCBC"/>
			<stop offset="0.9651212" style="stop-color:#9E9E9E"/>
			<stop offset="0.9720913" style="stop-color:#7A7A7A"/>
			<stop offset="0.9786351" style="stop-color:#505050"/>
			<stop offset="0.9846166" style="stop-color:#222222"/>
			<stop offset="0.9885005" style="stop-color:#000000"/>
		</radialGradient>
		<path opacity="0.04" fill="url(#SVGID_2_)" d="M32.0121155,1.4763948    C9.011117,7.6394944-4.6864576,31.365881,1.4763689,54.3658638s29.8884659,36.6988487,52.8894691,30.5357475    S91.064415,55.0121269,84.9015884,32.0121422S55.0131187-4.6867046,32.0121155,1.4763948z M52.1304665,76.5590897    c-18.3999863,4.9302597-37.3813133-6.0286102-42.3115768-24.4286003s6.0286131-37.3813095,24.4286003-42.311573    s37.3813095,6.0286131,42.3115768,24.4286003C81.4893265,52.6474991,70.5304489,71.62883,52.1304665,76.5590897z     M64.4333878,38.8561859c1.7122345-1.0515785,3.9422302,0.0724182,4.1234818,2.073597    c1.0974045,12.1158638-6.6318092,23.6162605-18.7674408,26.8679924    c-12.1544342,3.2567749-24.6000729-2.8377991-29.7079105-13.8789558    c-0.8436794-1.8237038,0.5255585-3.9121666,2.5342178-3.8575935c4.4569092,0.1210861,12.266798-0.1757736,21.6865978-2.6998024    C53.7221756,44.8373833,60.6341591,41.1895027,64.4333878,38.8561859z"/>
		<path fill="#FFFFFF" d="M105.7032013,66.9924316h1.8534317l17.5382385-43.3363647    c0.1956177-0.4833755,0.6649399-0.7997398,1.1864014-0.7997398h6.3170547c0.5327759,0,1.0123138,0.3231068,1.2124023,0.816885    l17.5530548,43.3192215h1.9356689c0.7220306,0,1.3073578,0.5853195,1.3073578,1.3073502v3.210289    c0,0.7220383-0.5853271,1.3073578-1.3073578,1.3073578h-12.3194275c-0.7220306,0-1.3073578-0.5853195-1.3073578-1.3073578    v-3.210289c0-0.7220306,0.5853271-1.3073502,1.3073578-1.3073502h2.9182739l-3.8555756-9.5983353h-21.5751572    l-3.7743912,9.5983353h2.8370895c0.7220383,0,1.3073578,0.5853195,1.3073578,1.3073502v3.210289    c0,0.7220383-0.5853195,1.3073578-1.3073578,1.3073578h-11.8270645c-0.7220383,0-1.3073578-0.5853195-1.3073578-1.3073578    v-3.210289C104.3958435,67.5777512,104.981163,66.9924316,105.7032013,66.9924316z M137.827652,51.5701485l-8.5313873-21.7406902    l-8.5324326,21.7406902H137.827652z M156.11763,55.2612495c0-10.828701,6.1528778-18.4586601,16.2414551-18.4586601    c4.4301758,0,7.7132568,1.5593071,10.3384552,3.7743874V20.3955956h-2.5914307    c-0.7220459,0-1.3073578-0.5853233-1.3073578-1.3073559v-2.963583c0-0.7220325,0.5853119-1.3073559,1.3073578-1.3073559h8.2564087    c0.7224731,0,1.3081512,0.585681,1.3081512,1.3081551v56.0534973c0,0.3526154-0.2858429,0.6384735-0.6384735,0.6384735h-5.2048798    c-0.3526154,0-0.6384735-0.2858582-0.6384735-0.6384735v-3.791687c-2.6251984,2.9530869-6.3173523,5.3326416-11.6499939,5.3326416    C161.9415741,73.7199097,156.11763,65.7620621,156.11763,55.2612495z M182.6975403,64.0393372V45.7451515    c-2.1338959-1.8049622-4.9235687-3.4454498-8.6958466-3.4454498c-7.2198486,0-10.6652832,5.3326416-10.6652832,12.8793106    c0,6.8919525,2.8719025,13.0437813,10.0074005,13.0437813C177.4471436,68.2227936,180.3991699,66.1721878,182.6975403,64.0393372z     M197.1983643,43.2021828h-1.9566803c-0.3552399,0-0.643219-0.2879829-0.643219-0.6432266v-3.5465317    c0-0.7220306,0.5853271-1.307354,1.3073578-1.307354h9.543457c0.7220306,0,1.3073578,0.5853233,1.3073578,1.307354v2.6356964    c0,0.7220306-0.5853271,1.307354-1.3073578,1.307354h-1.1955414l9.3516235,22.560936l9.3516235-22.4786987h-1.1955414    c-0.7220306,0-1.3073578-0.5853233-1.3073578-1.3073578v-2.7179298c0-0.7220306,0.5853271-1.307354,1.3073578-1.307354h9.1322784    c0.7220306,0,1.3073578,0.5853233,1.3073578,1.307354v3.5508614c0,0.3528519-0.2860413,0.6388969-0.6389008,0.6388969h-1.9588928    l-12.4615784,28.8340721c-0.2049255,0.4741669-0.6720581,0.7811737-1.1886139,0.7811737h-5.0265198    c-0.5154877,0-0.9818726-0.3057556-1.187439-0.7784653L197.1983643,43.2021828z M233.6159515,55.343483    c0-10.9109344,6.2330017-18.5408936,16.7338257-18.5408936c10.9942169,0,15.5888519,8.5324364,15.5888519,17.392765    c0,0.4059448,0,0.8260765-0.0115662,1.2544632c-0.0280762,1.0394554-0.9017029,1.8620415-1.9415588,1.8620415h-23.3162994    c0.6578827,6.8919525,4.594635,10.9109344,11.8144684,10.9109344c4.0775452,0,7.6850586-1.3395386,10.6435852-2.8688431    c0.4244995-0.219429,0.9241943,0.0809631,0.9241943,0.558815v4.1506119c0,0.2310257-0.1173401,0.4438019-0.318634,0.5571976    c-2.9281616,1.6496353-6.9316711,3.0993347-12.2338562,3.0993347    C239.7688293,73.7199097,233.6159515,66.0899506,233.6159515,55.343483z M240.6692047,52.2259216h18.705368    c-0.328949-5.0047531-2.5429688-10.172924-8.9425659-10.172924    C244.4435883,42.0529976,241.3270874,46.5653954,240.6692047,52.2259216z M271.3767395,67.2391357h1.4443665V20.3955956    h-2.5239868c-0.7220154,0-1.3073425-0.5853233-1.3073425-1.3073559v-2.963583    c0-0.7220325,0.5853271-1.3073559,1.3073425-1.3073559h8.1889648c0.7224731,0,1.308136,0.585681,1.308136,1.3081551v51.113678    h1.1133118c0.7220459,0,1.307373,0.5853195,1.307373,1.3073578v2.9635773c0,0.7220383-0.5853271,1.3073578-1.307373,1.3073578    h-9.5307922c-0.7220459,0-1.307373-0.5853195-1.307373-1.3073578v-2.9635773    C270.0693665,67.8244553,270.6546936,67.2391357,271.3767395,67.2391357z M290.5396423,66.3366547l-8.1721802-10.4876022    c-0.196228-0.251812-0.1777649-0.6095123,0.043335-0.8397903l11.4941711-11.97155h-2.1950378    c-0.7220154,0-1.3073425-0.5853233-1.3073425-1.3073578v-2.7179298c0-0.7220306,0.5853271-1.307354,1.3073425-1.307354h11.032135    c0.7220154,0,1.3073425,0.5853233,1.3073425,1.307354v3.4577637c0,0.3588524-0.2908936,0.6497574-0.6497498,0.6497574h-2.1124878    l-11.4855347,12.0590668l5.9884033,7.4654884c2.3806152,3.0353241,4.7590942,5.4971161,8.1223145,5.4971161    c0.6459045,0,1.0708313-0.1004715,1.4758911-0.1004715c0.4050903,0,0.65802,0.2877579,0.65802,0.6549301l0.0000305,3.8760605    c0,0.290535-0.1890564,0.5510025-0.4692383,0.6279602c-0.9387817,0.2578583-1.9723511,0.4375763-3.3051758,0.4375763    C297.3504028,73.6376724,293.9049683,70.8479996,290.5396423,66.3366547z M312.0599976,67.2391357h1.3600159V43.2844162    h-1.3600159c-0.7220154,0-1.3073425-0.5853233-1.3073425-1.307354v-2.9646378c0-0.7220306,0.5853271-1.307354,1.3073425-1.307354    h7.1072388c0.7224731,0,1.3081665,0.5856781,1.3081665,1.3081512v28.225914h1.3621216    c0.7220154,0,1.3073425,0.5853195,1.3073425,1.3073578v2.9635773c0,0.7220383-0.5853271,1.3073578-1.3073425,1.3073578h-9.7775269    c-0.7220154,0-1.3073425-0.5853195-1.3073425-1.3073578v-2.9635773    C310.752655,67.8244553,311.3379822,67.2391357,312.0599976,67.2391357z M316.4498596,21.2860718    c2.346344,0,4.27771,1.9313469,4.27771,4.2776947s-1.931366,4.2776947-4.27771,4.2776947    c-2.4154968,0-4.3468628-1.9313469-4.3468628-4.2776947S314.0343628,21.2860718,316.4498596,21.2860718z M332.0326233,63.383564    V43.3655968h-5.4988708c-0.3600464,0-0.6519165-0.2918663-0.6519165-0.6519051v-4.3567162    c0-0.3600388,0.2918701-0.6519051,0.6519165-0.6519051h5.4988708v-8.3718357c0-0.3600388,0.2918701-0.651907,0.651886-0.651907    h5.6714478c0.3600159,0,0.651886,0.2918682,0.651886,0.651907v8.3718357h8.6870728    c0.3600464,0,0.6519165,0.2918663,0.6519165,0.6519051v4.3567162c0,0.3600388-0.2918701,0.6519051-0.6519165,0.6519051h-8.6870728    v19.6067924c0,4.0200424,1.9673157,5.2504044,5.57724,5.2504044c1.7192078,0,3.2782593-0.2662048,4.5481262-0.6266098    C349.5671082,67.4730377,350,67.7809143,350,68.2319565l-0.0000305,3.8344345c0,0.298851-0.1976318,0.5644608-0.4851379,0.6460724    c-2.0582886,0.5842819-4.1664734,1.0074463-6.9814148,1.0074463    C336.1359558,73.7199097,332.0326233,71.0124664,332.0326233,63.383564z"/>
	</g>
</g>
<g id="Layer_2">
</g>
</svg>