<?xml version="1.0" standalone="no"?>
<!DOCTYPE svg PUBLIC "-//W3C//DTD SVG 1.1//EN" "http://www.w3.org/Graphics/SVG/1.1/DTD/svg11.dtd">
<svg xmlns="http://www.w3.org/2000/svg" width="957" height="224" viewBox="0 0 957 224" fill="none">
<path d="M249.025 186.479V178.151L250.535 176.642H254.23C255.924 176.609 257.566 176.043 258.92 175.024C260.275 174.006 261.275 172.587 261.777 170.968L302.896 74.7292C303.483 73.4176 303.801 72.0019 303.833 70.5653C303.833 68.4833 302.532 66.7657 299.513 66.7657H297.587L296.078 65.2563V56.9284L297.587 55.4189H335.479L336.988 56.9284V65.2563L335.479 66.7657H333.605C330.534 66.7657 329.441 68.4833 329.441 70.5653C329.527 72.0118 329.899 73.427 330.534 74.7292L373.163 170.968C375.453 176.173 377.743 176.642 380.762 176.642H384.926L386.435 178.151V186.479L384.926 187.988H332.304L330.795 186.479V178.151L332.304 176.642H338.029C341.413 176.642 343.234 174.924 343.234 172.478C343.172 171.295 342.853 170.141 342.297 169.095L338.29 159.622H279.63L275.622 169.095C275.067 170.141 274.747 171.295 274.685 172.478C274.685 174.924 276.403 176.642 279.89 176.642H285.46L286.969 178.151V186.479L285.46 187.988H250.274L249.025 186.479ZM333.501 148.223L309.246 90.9686L284.783 148.223H333.501Z" fill="#231F20"/>
<path d="M389.558 141.248C389.277 134.859 390.293 128.48 392.544 122.494C394.794 116.509 398.234 111.041 402.655 106.421C407.076 101.8 412.387 98.1228 418.267 95.6102C424.148 93.0977 430.476 91.8019 436.871 91.801C446.356 91.5703 455.603 94.7882 462.896 100.858V78.5285C462.762 76.5571 461.918 74.7011 460.521 73.3039C459.124 71.9068 457.268 71.0632 455.297 70.9293H453.006L452.018 69.4199V64.2149L453.527 62.7055L482.727 51.5149H488.452L489.961 53.0243L488.452 70.9293V169.094C488.598 171.056 489.447 172.9 490.843 174.286C492.239 175.673 494.088 176.509 496.051 176.641H498.289L499.799 178.151V186.479L498.289 187.988H463.572L462.063 186.479V178.359C458.543 182.55 454.081 185.847 449.042 187.982C444.003 190.117 438.531 191.029 433.072 190.643C412.981 190.643 389.558 175.913 389.558 141.248ZM463.052 141.248C463.052 120.949 456.233 104.293 439.37 104.293C422.506 104.293 415.687 120.949 415.687 141.248C415.687 161.547 422.506 178.151 439.37 178.151C456.233 178.151 463.208 161.495 463.208 141.248H463.052Z" fill="#231F20"/>
<path d="M553.722 186.478L515.31 109.445C514.995 108.32 514.31 107.333 513.366 106.643C512.422 105.954 511.273 105.603 510.105 105.646H506.097L504.483 104.241V95.9126L505.993 94.4032H551.276L552.785 95.9126V104.241L551.276 105.75H547.476C544.457 105.75 543.156 107.259 543.156 109.55C543.217 111 543.59 112.42 544.249 113.713L564.184 153.687L583.286 113.713C583.981 112.431 584.373 111.007 584.431 109.55C584.431 107.259 582.922 105.75 580.059 105.75H576.259L574.75 104.241V95.9126L576.259 94.4032H607.489L608.998 95.9126V104.241L607.489 105.75H603.898C602.618 105.661 601.343 105.968 600.244 106.629C599.145 107.29 598.276 108.273 597.756 109.445L560.54 186.478L559.031 187.988H555.283L553.722 186.478Z" fill="#231F20"/>
<path d="M611.913 140.675C611.841 134.198 613.076 127.773 615.545 121.784C618.014 115.796 621.667 110.367 626.283 105.823C630.9 101.279 636.386 97.7138 642.413 95.3402C648.44 92.9665 654.885 91.8335 661.36 92.009C692.954 92.009 707.58 115.483 707.58 141.976L706.07 143.538H635.595C635.595 160.194 648.087 173.05 667.398 173.05C674.507 173.331 681.564 171.726 687.853 168.398C694.143 165.071 699.44 160.139 703.207 154.104L704.717 153.375L707.58 154.52L708.152 156.03C705.536 166.214 699.538 175.207 691.14 181.534C682.742 187.86 672.443 191.146 661.932 190.851C655.293 191.061 648.682 189.906 642.508 187.457C636.333 185.008 630.728 181.317 626.038 176.613C621.349 171.909 617.675 166.292 615.246 160.11C612.816 153.928 611.682 147.313 611.913 140.675ZM675.153 131.41C676.136 131.562 677.141 131.49 678.093 131.199C679.044 130.908 679.917 130.406 680.648 129.731C681.378 129.055 681.947 128.224 682.311 127.298C682.676 126.372 682.826 125.376 682.752 124.384C682.867 121.609 682.388 118.841 681.348 116.266C680.307 113.691 678.729 111.368 676.719 109.451C674.709 107.535 672.313 106.069 669.691 105.153C667.069 104.236 664.282 103.89 661.516 104.136C654.659 104.136 648.078 106.842 643.205 111.667C638.332 116.491 635.56 123.044 635.491 129.901L637.001 131.41H675.153Z" fill="#231F20"/>
<path d="M717.468 186.479V178.151L718.978 176.641H721.216C723.179 176.509 725.028 175.673 726.424 174.286C727.82 172.9 728.669 171.056 728.815 169.094V78.5285C728.681 76.5571 727.838 74.7011 726.44 73.3039C725.043 71.9068 723.187 71.0632 721.216 70.9293H718.978L717.468 69.4199V64.2149L718.561 62.7055L748.125 51.5149H753.903L755.412 53.0243L753.486 70.8252V140.675L785.705 111.684C786.215 111.309 786.634 110.825 786.932 110.266C787.229 109.708 787.397 109.089 787.423 108.457C787.423 107.156 786.434 106.01 784.196 106.01H780.396L778.887 104.501V96.1732L780.396 94.6638H815.061L816.57 96.1732V104.241L815.061 105.75H811.678C807.878 105.75 806.473 107.468 801.996 111.424L779.928 131.202L807.201 172.269C807.8 173.575 808.76 174.681 809.969 175.456C811.178 176.231 812.584 176.642 814.02 176.641H819.225L820.734 178.151V186.479L819.225 187.988H788.568L786.069 186.479L761.658 148.222L753.591 156.29V168.99C753.737 170.952 754.585 172.796 755.981 174.182C757.377 175.569 759.227 176.405 761.19 176.537H763.48L764.989 178.047V186.375L763.48 187.884H718.77L717.468 186.479Z" fill="#231F20"/>
<path d="M831.977 186.479V178.151L833.486 176.641H835.724C837.688 176.509 839.537 175.673 840.933 174.286C842.329 172.9 843.178 171.056 843.324 169.094V121.313C843.178 119.351 842.329 117.507 840.933 116.121C839.537 114.734 837.688 113.898 835.724 113.766H833.486L831.977 112.256V107.051L833.07 105.49L862.634 94.3514H868.411L870.337 96.2252L868.411 113.766V169.094C868.557 171.056 869.406 172.9 870.802 174.286C872.198 175.673 874.048 176.509 876.011 176.641H878.301L879.81 178.151V186.479L878.301 187.988H833.59L831.977 186.479ZM840.305 65.8284C840.305 62.7401 841.221 59.7211 842.936 57.1533C844.652 54.5855 847.091 52.5841 849.944 51.4022C852.797 50.2204 855.937 49.9112 858.966 50.5137C861.995 51.1162 864.777 52.6033 866.961 54.7871C869.145 56.9709 870.632 59.7532 871.234 62.7821C871.837 65.8111 871.528 68.9507 870.346 71.8039C869.164 74.6572 867.163 77.0959 864.595 78.8116C862.027 80.5274 859.008 81.4432 855.92 81.4432C853.86 81.4569 851.819 81.0632 849.912 80.2846C848.006 79.506 846.272 78.358 844.811 76.9067C843.35 75.4554 842.19 73.7294 841.399 71.8281C840.608 69.9268 840.201 67.8878 840.201 65.8284H840.305Z" fill="#231F20"/>
<path d="M902.713 163.004V106.582H888.659L887.15 105.021V100.857L922.96 68.274H926.187L927.696 69.8355V94.4548H951.691L953.2 95.9643V105.021L951.691 106.582H927.8V164.721C927.633 166.217 927.792 167.731 928.267 169.16C928.742 170.588 929.52 171.897 930.549 172.995C931.578 174.093 932.833 174.956 934.228 175.522C935.622 176.088 937.123 176.346 938.627 176.276C941.268 176.256 943.843 175.454 946.029 173.972C948.215 172.49 949.914 170.394 950.91 167.948L952.42 167.376L956.219 168.885L957 170.395C955.581 176.349 952.136 181.624 947.255 185.317C942.375 189.011 936.362 190.893 930.247 190.642C915.777 190.642 902.713 182.73 902.713 163.004Z" fill="#231F20"/>
<path d="M82.4682 3.94173C61.1347 9.76671 42.0041 21.7791 27.4895 38.4637C12.975 55.1483 3.72666 75.7577 0.91116 97.6922C-1.90434 119.627 1.83911 141.904 11.6693 161.713C21.4995 181.523 36.9761 197.977 56.1468 209.001C75.3176 220.025 97.3237 225.125 119.389 223.657C141.455 222.189 162.592 214.22 180.133 200.753C197.675 187.287 210.836 168.928 217.955 147.991C225.075 127.054 225.835 104.477 220.139 83.1087C216.331 68.8509 209.743 55.4862 200.754 43.7824C191.765 32.0786 180.552 22.2664 167.759 14.9098C154.965 7.5532 140.845 2.79711 126.208 0.914841C111.571 -0.967426 96.7063 0.06124 82.4682 3.94173ZM134.882 198.502C117.773 203.039 99.7028 202.402 82.9555 196.672C66.2082 190.942 51.5353 180.377 40.791 166.31C30.0467 152.244 23.7133 135.308 22.5912 117.643C21.469 99.9786 25.6085 82.3776 34.4865 67.0648C43.3644 51.7519 56.5824 39.4144 72.47 31.6114C88.3577 23.8085 106.202 20.8903 123.747 23.2256C141.293 25.5609 157.753 33.045 171.046 44.7319C184.34 56.4189 193.87 71.7842 198.434 88.8862C204.419 111.845 201.1 136.238 189.2 156.763C177.3 177.289 157.78 192.289 134.882 198.502ZM166.892 100.805C167.905 100.186 169.057 99.8317 170.242 99.7742C171.428 99.7168 172.608 99.9583 173.676 100.477C174.744 100.995 175.664 101.773 176.352 102.74C177.04 103.707 177.474 104.832 177.614 106.01C179.132 121.638 175.056 137.298 166.11 150.201C157.164 163.105 143.93 172.416 128.762 176.476C113.595 180.537 97.479 179.083 83.2828 172.375C69.0866 165.667 57.7315 154.138 51.2386 139.842C50.7303 138.753 50.51 137.551 50.5988 136.353C50.6875 135.154 51.0824 133.998 51.7457 132.995C52.4089 131.992 53.3183 131.176 54.3868 130.626C55.4554 130.075 56.6474 129.807 57.8488 129.849C76.8906 130.193 95.8855 127.845 114.27 122.874C132.768 118.048 150.486 110.618 166.892 100.805Z" fill="#60C5C0"/>
</svg>